<svg width="179" height="47" viewBox="0 0 179 47" fill="none" xmlns="http://www.w3.org/2000/svg">
<path d="M28.0371 13.5586C28.1217 13.474 28.2064 13.3438 28.291 13.168C28.3887 12.9596 28.4993 12.8555 28.623 12.8555C28.7988 12.8555 28.9062 12.9987 28.9453 13.2852L29.2871 15.9609L29.3262 16.2832C29.3262 16.459 29.2383 16.5469 29.0625 16.5469C28.9323 16.5469 28.8379 16.5176 28.7793 16.459C28.7207 16.3939 28.61 16.1921 28.4473 15.8535C28.1673 15.2741 27.7051 14.7533 27.0605 14.291C26.416 13.8288 25.7682 13.5977 25.1172 13.5977C24.4857 13.5977 23.9583 13.7799 23.5352 14.1445C23.1185 14.5026 22.9102 14.9551 22.9102 15.502C22.9102 15.9382 23.1055 16.332 23.4961 16.6836C23.8867 17.0352 24.6387 17.3672 25.752 17.6797C27.4967 18.1745 28.6784 18.7865 29.2969 19.5156C29.9089 20.2448 30.2148 21.0553 30.2148 21.9473C30.2148 22.8587 29.9902 23.6237 29.541 24.2422C29.0918 24.8607 28.5547 25.349 27.9297 25.707C27.3047 26.0586 26.5039 26.2344 25.5273 26.2344C24.974 26.2344 24.401 26.1562 23.8086 26C23.2161 25.8372 22.6042 25.5964 21.9727 25.2773C21.8424 25.4271 21.7318 25.6224 21.6406 25.8633C21.5365 26.1302 21.4062 26.2637 21.25 26.2637C21.0872 26.2637 20.9896 26.0879 20.957 25.7363L20.6738 22.1914C20.6608 22.0352 20.6543 21.9375 20.6543 21.8984C20.6543 21.7096 20.752 21.6152 20.9473 21.6152C21.0905 21.6152 21.2272 21.778 21.3574 22.1035C21.7546 23.0801 22.2949 23.8939 22.9785 24.5449C23.6556 25.196 24.4466 25.5215 25.3516 25.5215C26.1198 25.5215 26.7383 25.2936 27.207 24.8379C27.6823 24.3822 27.9199 23.8646 27.9199 23.2852C27.9199 22.7057 27.7018 22.2174 27.2656 21.8203C26.8294 21.4232 26.0449 21.0423 24.9121 20.6777C23.8118 20.3197 22.9915 19.9779 22.4512 19.6523C21.9173 19.3268 21.4876 18.8809 21.1621 18.3145C20.8431 17.7415 20.6836 17.1621 20.6836 16.5762C20.6836 15.554 21.0775 14.6849 21.8652 13.9688C22.6595 13.2526 23.737 12.8945 25.0977 12.8945C25.8333 12.8945 26.8132 13.1159 28.0371 13.5586ZM37.2852 12.7578H37.959C38.8184 14.6198 40.0326 17.5495 41.6016 21.5469C42.3242 23.3828 42.8223 24.4961 43.0957 24.8867C43.3691 25.2708 43.8021 25.5052 44.3945 25.5898C44.5898 25.6159 44.6875 25.7005 44.6875 25.8438C44.6875 26.0456 44.5605 26.1465 44.3066 26.1465C44.1699 26.1465 43.8151 26.1237 43.2422 26.0781C42.5651 26.0195 41.9954 25.9902 41.5332 25.9902C41.084 25.9902 40.498 26.0163 39.7754 26.0684C39.235 26.1074 38.8802 26.127 38.7109 26.127C38.4115 26.127 38.2617 26.0326 38.2617 25.8438C38.2617 25.7005 38.3659 25.6191 38.5742 25.5996C39.375 25.528 39.7754 25.2155 39.7754 24.6621C39.7754 24.4017 39.6582 23.9232 39.4238 23.2266C39.1895 22.5234 38.9388 21.8854 38.6719 21.3125C38.2487 21.306 37.9199 21.3027 37.6855 21.3027C36.377 21.3027 35.3581 21.306 34.6289 21.3125C34.0625 22.8555 33.7793 23.8776 33.7793 24.3789C33.7793 24.737 33.9193 25.0169 34.1992 25.2188C34.4792 25.4141 34.7819 25.528 35.1074 25.5605C35.3548 25.5866 35.4785 25.6875 35.4785 25.8633C35.4785 26.0391 35.3451 26.127 35.0781 26.127C34.974 26.127 34.7005 26.1107 34.2578 26.0781C33.6849 26.0326 33.2682 26.0098 33.0078 26.0098C32.4935 26.0098 32.0052 26.0423 31.543 26.1074C31.4258 26.127 31.3281 26.1367 31.25 26.1367C31.0091 26.1367 30.8887 26.0391 30.8887 25.8438C30.8887 25.7005 30.9668 25.6061 31.123 25.5605C31.5137 25.4499 31.8197 25.3132 32.041 25.1504C32.2624 24.9876 32.5 24.6751 32.7539 24.2129C33.0143 23.7507 33.3236 23.0117 33.6816 21.9961C34.4889 19.7174 35.6901 16.638 37.2852 12.7578ZM36.6016 16.166L34.9219 20.5215L38.3594 20.4727C38.1771 19.9648 37.8971 19.2682 37.5195 18.3828C37.1094 17.4193 36.8034 16.6803 36.6016 16.166ZM52.8418 13.5586C52.9264 13.474 53.0111 13.3438 53.0957 13.168C53.1934 12.9596 53.304 12.8555 53.4277 12.8555C53.6035 12.8555 53.7109 12.9987 53.75 13.2852L54.0918 15.9609L54.1309 16.2832C54.1309 16.459 54.043 16.5469 53.8672 16.5469C53.737 16.5469 53.6426 16.5176 53.584 16.459C53.5254 16.3939 53.4147 16.1921 53.252 15.8535C52.972 15.2741 52.5098 14.7533 51.8652 14.291C51.2207 13.8288 50.5729 13.5977 49.9219 13.5977C49.2904 13.5977 48.763 13.7799 48.3398 14.1445C47.9232 14.5026 47.7148 14.9551 47.7148 15.502C47.7148 15.9382 47.9102 16.332 48.3008 16.6836C48.6914 17.0352 49.4434 17.3672 50.5566 17.6797C52.3014 18.1745 53.4831 18.7865 54.1016 19.5156C54.7135 20.2448 55.0195 21.0553 55.0195 21.9473C55.0195 22.8587 54.7949 23.6237 54.3457 24.2422C53.8965 24.8607 53.3594 25.349 52.7344 25.707C52.1094 26.0586 51.3086 26.2344 50.332 26.2344C49.7786 26.2344 49.2057 26.1562 48.6133 26C48.0208 25.8372 47.4089 25.5964 46.7773 25.2773C46.6471 25.4271 46.5365 25.6224 46.4453 25.8633C46.3411 26.1302 46.2109 26.2637 46.0547 26.2637C45.8919 26.2637 45.7943 26.0879 45.7617 25.7363L45.4785 22.1914C45.4655 22.0352 45.459 21.9375 45.459 21.8984C45.459 21.7096 45.5566 21.6152 45.752 21.6152C45.8952 21.6152 46.0319 21.778 46.1621 22.1035C46.5592 23.0801 47.0996 23.8939 47.7832 24.5449C48.4603 25.196 49.2513 25.5215 50.1562 25.5215C50.9245 25.5215 51.543 25.2936 52.0117 24.8379C52.487 24.3822 52.7246 23.8646 52.7246 23.2852C52.7246 22.7057 52.5065 22.2174 52.0703 21.8203C51.6341 21.4232 50.8496 21.0423 49.7168 20.6777C48.6165 20.3197 47.7962 19.9779 47.2559 19.6523C46.722 19.3268 46.2923 18.8809 45.9668 18.3145C45.6478 17.7415 45.4883 17.1621 45.4883 16.5762C45.4883 15.554 45.8822 14.6849 46.6699 13.9688C47.4642 13.2526 48.5417 12.8945 49.9023 12.8945C50.638 12.8945 51.6178 13.1159 52.8418 13.5586ZM63.6816 13.5586C63.7663 13.474 63.8509 13.3438 63.9355 13.168C64.0332 12.9596 64.1439 12.8555 64.2676 12.8555C64.4434 12.8555 64.5508 12.9987 64.5898 13.2852L64.9316 15.9609L64.9707 16.2832C64.9707 16.459 64.8828 16.5469 64.707 16.5469C64.5768 16.5469 64.4824 16.5176 64.4238 16.459C64.3652 16.3939 64.2546 16.1921 64.0918 15.8535C63.8118 15.2741 63.3496 14.7533 62.7051 14.291C62.0605 13.8288 61.4128 13.5977 60.7617 13.5977C60.1302 13.5977 59.6029 13.7799 59.1797 14.1445C58.763 14.5026 58.5547 14.9551 58.5547 15.502C58.5547 15.9382 58.75 16.332 59.1406 16.6836C59.5312 17.0352 60.2832 17.3672 61.3965 17.6797C63.1413 18.1745 64.3229 18.7865 64.9414 19.5156C65.5534 20.2448 65.8594 21.0553 65.8594 21.9473C65.8594 22.8587 65.6348 23.6237 65.1855 24.2422C64.7363 24.8607 64.1992 25.349 63.5742 25.707C62.9492 26.0586 62.1484 26.2344 61.1719 26.2344C60.6185 26.2344 60.0456 26.1562 59.4531 26C58.8607 25.8372 58.2487 25.5964 57.6172 25.2773C57.487 25.4271 57.3763 25.6224 57.2852 25.8633C57.181 26.1302 57.0508 26.2637 56.8945 26.2637C56.7318 26.2637 56.6341 26.0879 56.6016 25.7363L56.3184 22.1914C56.3053 22.0352 56.2988 21.9375 56.2988 21.8984C56.2988 21.7096 56.3965 21.6152 56.5918 21.6152C56.735 21.6152 56.8717 21.778 57.002 22.1035C57.3991 23.0801 57.9395 23.8939 58.623 24.5449C59.3001 25.196 60.0911 25.5215 60.9961 25.5215C61.7643 25.5215 62.3828 25.2936 62.8516 24.8379C63.3268 24.3822 63.5645 23.8646 63.5645 23.2852C63.5645 22.7057 63.3464 22.2174 62.9102 21.8203C62.474 21.4232 61.6895 21.0423 60.5566 20.6777C59.4564 20.3197 58.6361 19.9779 58.0957 19.6523C57.5618 19.3268 57.1322 18.8809 56.8066 18.3145C56.4876 17.7415 56.3281 17.1621 56.3281 16.5762C56.3281 15.554 56.722 14.6849 57.5098 13.9688C58.304 13.2526 59.3815 12.8945 60.7422 12.8945C61.4779 12.8945 62.4577 13.1159 63.6816 13.5586ZM74.3457 12.9336C75.6608 12.9336 76.8099 13.1973 77.793 13.7246C78.7826 14.252 79.5736 15.0169 80.166 16.0195C80.765 17.0156 81.0645 18.1029 81.0645 19.2812C81.0645 21.1042 80.3841 22.722 79.0234 24.1348C77.6628 25.541 75.9766 26.2441 73.9648 26.2441C72.1354 26.2441 70.5697 25.6615 69.2676 24.4961C67.972 23.3307 67.3242 21.7552 67.3242 19.7695C67.3242 17.8945 67.9948 16.2865 69.3359 14.9453C70.6836 13.6042 72.3535 12.9336 74.3457 12.9336ZM77.7539 19.5742C77.7539 17.6016 77.4186 16.1172 76.748 15.1211C76.0775 14.125 75.2279 13.627 74.1992 13.627C73.1771 13.627 72.3307 14.1283 71.6602 15.1309C70.9896 16.127 70.6543 17.6081 70.6543 19.5742C70.6543 21.4622 70.9733 22.9271 71.6113 23.9688C72.2559 25.0104 73.1185 25.5312 74.1992 25.5312C75.1562 25.5312 75.9863 25.0625 76.6895 24.125C77.3991 23.181 77.7539 21.6641 77.7539 19.5742ZM82.7246 13.002L85.8691 13.1094C86.1686 13.1094 86.5104 13.0931 86.8945 13.0605C87.5065 13.015 87.9883 12.9922 88.3398 12.9922C88.6719 12.9922 88.8379 13.0833 88.8379 13.2656C88.8379 13.4414 88.7077 13.5358 88.4473 13.5488C87.9785 13.5749 87.627 13.7441 87.3926 14.0566C87.1647 14.3626 87.0182 14.9974 86.9531 15.9609C86.888 16.918 86.8555 17.9727 86.8555 19.125C86.8555 20.974 86.9434 22.2174 87.1191 22.8555C87.2949 23.487 87.6725 23.9915 88.252 24.3691C88.8314 24.7467 89.5996 24.9355 90.5566 24.9355C91.5267 24.9355 92.2591 24.7305 92.7539 24.3203C93.2487 23.9036 93.5872 23.2526 93.7695 22.3672C93.9583 21.4818 94.0527 19.8379 94.0527 17.4355C94.0527 16.0163 93.9421 15.0365 93.7207 14.4961C93.4993 13.9557 93.1217 13.6595 92.5879 13.6074C92.2038 13.5684 92.0117 13.4544 92.0117 13.2656C92.0117 13.0768 92.168 12.9824 92.4805 12.9824C92.6302 12.9824 92.8809 13.002 93.2324 13.041C93.597 13.0736 93.9779 13.0898 94.375 13.0898C94.7396 13.0898 95.1465 13.0703 95.5957 13.0312C95.9342 13.0052 96.1686 12.9922 96.2988 12.9922C96.6243 12.9922 96.7871 13.0866 96.7871 13.2754C96.7871 13.4251 96.6699 13.513 96.4355 13.5391C96.11 13.5716 95.8138 13.7246 95.5469 13.998C95.2865 14.265 95.1172 14.7109 95.0391 15.3359C94.9674 15.9544 94.9316 17.5495 94.9316 20.1211C94.9316 21.8138 94.7624 23.041 94.4238 23.8027C94.0853 24.5579 93.4928 25.1471 92.6465 25.5703C91.8066 25.987 90.7585 26.1953 89.502 26.1953C88.5319 26.1953 87.6888 26.1107 86.9727 25.9414C86.2565 25.7656 85.6868 25.4987 85.2637 25.1406C84.847 24.7826 84.5443 24.3691 84.3555 23.9004C84.1732 23.4316 84.082 22.7415 84.082 21.8301L84.1211 16.625C84.1211 15.8958 84.0788 15.2969 83.9941 14.8281C83.916 14.3594 83.7891 14.0501 83.6133 13.9004C83.4375 13.7441 83.1706 13.6465 82.8125 13.6074C82.5846 13.5814 82.4414 13.5488 82.3828 13.5098C82.3307 13.4642 82.3047 13.3926 82.3047 13.2949C82.3047 13.0996 82.4447 13.002 82.7246 13.002ZM102.217 13.1582C102.386 13.5618 102.699 14.2031 103.154 15.082C103.61 15.9544 104.059 16.8431 104.502 17.748C104.951 18.6465 105.456 19.5938 106.016 20.5898C106.465 21.3776 106.719 21.8398 106.777 21.9766C108.411 18.3242 109.648 15.3848 110.488 13.1582C112.051 13.1582 113.493 13.1191 114.814 13.041C114.938 13.0345 115.029 13.0312 115.088 13.0312C115.355 13.0312 115.488 13.1354 115.488 13.3438C115.488 13.526 115.384 13.6172 115.176 13.6172C114.434 13.6172 113.945 13.8711 113.711 14.3789C113.483 14.8802 113.369 16.1074 113.369 18.0605L113.359 22.8457C113.359 23.8223 113.486 24.5059 113.74 24.8965C114.001 25.2871 114.421 25.4922 115 25.5117C115.28 25.5182 115.42 25.6126 115.42 25.7949C115.42 25.8926 115.361 25.974 115.244 26.0391L112.5 26.0195C111.66 26.0195 110.511 26.0488 109.053 26.1074C108.929 26.0228 108.867 25.9316 108.867 25.834C108.867 25.6842 109.036 25.5833 109.375 25.5312C109.72 25.4727 109.967 25.388 110.117 25.2773C110.273 25.1667 110.391 24.9616 110.469 24.6621C110.547 24.3626 110.586 23.9232 110.586 23.3438L110.625 18.9785C110.625 16.7454 110.628 15.4596 110.635 15.1211C108.864 19.2357 107.767 21.8626 107.344 23.002L106.357 25.6484C106.247 25.9284 106.136 26.0684 106.025 26.0684C105.908 26.0684 105.768 25.8958 105.605 25.5508C105.13 24.5482 103.434 21.2376 100.518 15.6191C100.485 17.2337 100.469 19.4115 100.469 22.1523C100.469 23.5977 100.55 24.5124 100.713 24.8965C100.876 25.2741 101.331 25.4954 102.08 25.5605C102.327 25.5866 102.451 25.6777 102.451 25.834C102.451 26.0033 102.35 26.0879 102.148 26.0879C102.077 26.0879 101.999 26.0846 101.914 26.0781C101.133 26.026 100.573 26 100.234 26C99.3099 26 98.61 26.0326 98.1348 26.0977C98.0436 26.1107 97.9753 26.1172 97.9297 26.1172C97.7018 26.1172 97.5879 26.0228 97.5879 25.834C97.5879 25.7428 97.6139 25.681 97.666 25.6484C97.7246 25.6094 97.8743 25.5638 98.1152 25.5117C98.7402 25.3945 99.1471 25.1699 99.3359 24.8379C99.5312 24.5059 99.6289 23.9622 99.6289 23.207L99.6777 17.6309C99.6777 16.3613 99.6452 15.5215 99.5801 15.1113C99.515 14.7012 99.3555 14.3854 99.1016 14.1641C98.8477 13.9427 98.4342 13.7767 97.8613 13.666C97.6465 13.6204 97.5391 13.513 97.5391 13.3438C97.5391 13.1615 97.6562 13.0703 97.8906 13.0703C97.9427 13.0703 98.0143 13.0736 98.1055 13.0801C98.7695 13.1322 100.14 13.1582 102.217 13.1582ZM122.324 12.7578H122.998C123.857 14.6198 125.072 17.5495 126.641 21.5469C127.363 23.3828 127.861 24.4961 128.135 24.8867C128.408 25.2708 128.841 25.5052 129.434 25.5898C129.629 25.6159 129.727 25.7005 129.727 25.8438C129.727 26.0456 129.6 26.1465 129.346 26.1465C129.209 26.1465 128.854 26.1237 128.281 26.0781C127.604 26.0195 127.035 25.9902 126.572 25.9902C126.123 25.9902 125.537 26.0163 124.814 26.0684C124.274 26.1074 123.919 26.127 123.75 26.127C123.451 26.127 123.301 26.0326 123.301 25.8438C123.301 25.7005 123.405 25.6191 123.613 25.5996C124.414 25.528 124.814 25.2155 124.814 24.6621C124.814 24.4017 124.697 23.9232 124.463 23.2266C124.229 22.5234 123.978 21.8854 123.711 21.3125C123.288 21.306 122.959 21.3027 122.725 21.3027C121.416 21.3027 120.397 21.306 119.668 21.3125C119.102 22.8555 118.818 23.8776 118.818 24.3789C118.818 24.737 118.958 25.0169 119.238 25.2188C119.518 25.4141 119.821 25.528 120.146 25.5605C120.394 25.5866 120.518 25.6875 120.518 25.8633C120.518 26.0391 120.384 26.127 120.117 26.127C120.013 26.127 119.74 26.1107 119.297 26.0781C118.724 26.0326 118.307 26.0098 118.047 26.0098C117.533 26.0098 117.044 26.0423 116.582 26.1074C116.465 26.127 116.367 26.1367 116.289 26.1367C116.048 26.1367 115.928 26.0391 115.928 25.8438C115.928 25.7005 116.006 25.6061 116.162 25.5605C116.553 25.4499 116.859 25.3132 117.08 25.1504C117.301 24.9876 117.539 24.6751 117.793 24.2129C118.053 23.7507 118.363 23.0117 118.721 21.9961C119.528 19.7174 120.729 16.638 122.324 12.7578ZM121.641 16.166L119.961 20.5215L123.398 20.4727C123.216 19.9648 122.936 19.2682 122.559 18.3828C122.148 17.4193 121.842 16.6803 121.641 16.166ZM133.906 13.0996C137.025 16.6478 139.626 19.4928 141.709 21.6348C141.715 21.1921 141.719 20.9056 141.719 20.7754L141.729 16.9082C141.729 15.9967 141.676 15.3457 141.572 14.9551C141.468 14.5579 141.247 14.2454 140.908 14.0176C140.57 13.7897 140.176 13.6562 139.727 13.6172C139.486 13.5911 139.365 13.4902 139.365 13.3145C139.365 13.1257 139.476 13.0312 139.697 13.0312C139.821 13.0312 139.98 13.0443 140.176 13.0703C140.547 13.1159 141.09 13.1387 141.807 13.1387C142.705 13.1387 143.389 13.1126 143.857 13.0605C144.053 13.041 144.219 13.0312 144.355 13.0312C144.603 13.0312 144.727 13.1257 144.727 13.3145C144.727 13.4967 144.561 13.6042 144.229 13.6367C143.818 13.6758 143.434 13.8483 143.076 14.1543C142.725 14.4603 142.549 15.0625 142.549 15.9609L142.598 21.4883L142.529 25.6484C142.529 26.0065 142.419 26.1855 142.197 26.1855C142.139 26.1855 142.07 26.166 141.992 26.127C141.914 26.0879 141.465 25.6387 140.645 24.7793C139.831 23.9134 138.617 22.5755 137.002 20.7656C135.394 18.9492 134.264 17.6471 133.613 16.8594C133.6 17.0352 133.594 18.6725 133.594 21.7715C133.594 22.7285 133.633 23.4805 133.711 24.0273C133.796 24.5677 134.049 24.9616 134.473 25.209C134.902 25.4499 135.29 25.5703 135.635 25.5703C135.856 25.5703 135.967 25.6549 135.967 25.8242C135.967 26.0195 135.85 26.1172 135.615 26.1172C135.465 26.1172 135.277 26.1042 135.049 26.0781C134.658 26.026 134.16 26 133.555 26C132.585 26 131.882 26.0293 131.445 26.0879C131.172 26.1204 130.977 26.1367 130.859 26.1367C130.605 26.1367 130.479 26.0293 130.479 25.8145C130.479 25.6582 130.684 25.5638 131.094 25.5312C131.829 25.4727 132.288 25.2188 132.471 24.7695C132.66 24.3203 132.754 23.7083 132.754 22.9336C132.754 19.5742 132.734 17.5202 132.695 16.7715C132.663 16.0228 132.428 15.3457 131.992 14.7402C131.562 14.1348 131.042 13.7734 130.43 13.6562C130.176 13.6107 130.049 13.5098 130.049 13.3535C130.049 13.1387 130.182 13.0312 130.449 13.0312C130.514 13.0312 130.609 13.0378 130.732 13.0508C130.882 13.0638 131.152 13.0703 131.543 13.0703C132.389 13.0703 133.177 13.0801 133.906 13.0996ZM156.309 13.207C156.517 14.2227 156.722 15.2383 156.924 16.2539C156.924 16.4427 156.829 16.5371 156.641 16.5371C156.536 16.5371 156.419 16.446 156.289 16.2637C155.618 15.2871 155.003 14.6426 154.443 14.3301C153.89 14.0176 153.089 13.8613 152.041 13.8613C151.455 13.8613 150.889 13.9102 150.342 14.0078C150.225 15.1602 150.166 16.4232 150.166 17.7969C150.166 18.0312 150.173 18.4251 150.186 18.9785L150.928 18.9883C151.39 18.9883 151.787 18.9264 152.119 18.8027C152.458 18.6725 152.744 18.4023 152.979 17.9922C153.213 17.5755 153.346 17.3086 153.379 17.1914C153.438 16.9831 153.538 16.8789 153.682 16.8789C153.864 16.8789 153.955 16.957 153.955 17.1133C153.955 17.1589 153.949 17.2109 153.936 17.2695C153.857 17.6732 153.818 18.8809 153.818 20.8926C153.818 21.1725 153.841 21.4264 153.887 21.6543C153.9 21.7194 153.906 21.7747 153.906 21.8203C153.906 22.0026 153.802 22.0938 153.594 22.0938C153.451 22.0938 153.34 21.9212 153.262 21.5762C153.132 20.9707 152.835 20.5117 152.373 20.1992C151.911 19.8802 151.182 19.7142 150.186 19.7012C150.153 20.7949 150.137 21.5143 150.137 21.8594C150.137 23.3438 150.16 24.2259 150.205 24.5059C150.251 24.7858 150.417 25.0137 150.703 25.1895C150.99 25.3587 151.475 25.4434 152.158 25.4434C154.639 25.4434 156.27 24.6556 157.051 23.0801C157.161 22.8587 157.282 22.748 157.412 22.748C157.601 22.748 157.695 22.8262 157.695 22.9824C157.695 23.0866 157.676 23.2201 157.637 23.3828L157.002 26.1855L153.467 26.1758C152.471 26.1693 151.54 26.1465 150.674 26.1074C149.814 26.0684 149.141 26.0488 148.652 26.0488C148.105 26.0488 147.282 26.0814 146.182 26.1465C146.045 26.1595 145.944 26.166 145.879 26.166C145.573 26.166 145.42 26.0651 145.42 25.8633C145.42 25.681 145.544 25.5898 145.791 25.5898C146.423 25.5898 146.846 25.4206 147.061 25.082C147.282 24.737 147.393 24.0371 147.393 22.9824L147.451 17.9531C147.451 16.2344 147.428 15.1797 147.383 14.7891C147.344 14.3919 147.233 14.125 147.051 13.9883C146.868 13.8451 146.527 13.7376 146.025 13.666C145.817 13.64 145.713 13.5488 145.713 13.3926C145.713 13.1973 145.833 13.0996 146.074 13.0996L148.428 13.1777L156.309 13.207Z" fill="white"/>
<path d="M62.616 43.056C62.168 43.056 61.768 42.9627 61.416 42.776C61.0693 42.584 60.7973 42.3227 60.6 41.992C60.4027 41.6613 60.304 41.2853 60.304 40.864C60.304 40.4373 60.4027 40.0613 60.6 39.736C60.7973 39.4053 61.0693 39.1467 61.416 38.96C61.768 38.7733 62.168 38.68 62.616 38.68C63.032 38.68 63.3973 38.7653 63.712 38.936C64.032 39.1013 64.2747 39.3467 64.44 39.672L63.672 40.12C63.544 39.9173 63.3867 39.768 63.2 39.672C63.0187 39.576 62.8213 39.528 62.608 39.528C62.3627 39.528 62.1413 39.5813 61.944 39.688C61.7467 39.7947 61.592 39.9493 61.48 40.152C61.368 40.3493 61.312 40.5867 61.312 40.864C61.312 41.1413 61.368 41.3813 61.48 41.584C61.592 41.7813 61.7467 41.9333 61.944 42.04C62.1413 42.1467 62.3627 42.2 62.608 42.2C62.8213 42.2 63.0187 42.152 63.2 42.056C63.3867 41.96 63.544 41.8107 63.672 41.608L64.44 42.056C64.2747 42.376 64.032 42.624 63.712 42.8C63.3973 42.9707 63.032 43.056 62.616 43.056ZM69.3219 43.056C68.8846 43.056 68.4953 42.9627 68.1539 42.776C67.8126 42.584 67.5433 42.3227 67.3459 41.992C67.1486 41.6613 67.0499 41.2853 67.0499 40.864C67.0499 40.4373 67.1486 40.0613 67.3459 39.736C67.5433 39.4053 67.8126 39.1467 68.1539 38.96C68.4953 38.7733 68.8846 38.68 69.3219 38.68C69.7646 38.68 70.1566 38.7733 70.4979 38.96C70.8446 39.1467 71.1139 39.4027 71.3059 39.728C71.5033 40.0533 71.6019 40.432 71.6019 40.864C71.6019 41.2853 71.5033 41.6613 71.3059 41.992C71.1139 42.3227 70.8446 42.584 70.4979 42.776C70.1566 42.9627 69.7646 43.056 69.3219 43.056ZM69.3219 42.2C69.5673 42.2 69.7859 42.1467 69.9779 42.04C70.1699 41.9333 70.3193 41.7787 70.4259 41.576C70.5379 41.3733 70.5939 41.136 70.5939 40.864C70.5939 40.5867 70.5379 40.3493 70.4259 40.152C70.3193 39.9493 70.1699 39.7947 69.9779 39.688C69.7859 39.5813 69.5699 39.528 69.3299 39.528C69.0846 39.528 68.8659 39.5813 68.6739 39.688C68.4873 39.7947 68.3379 39.9493 68.2259 40.152C68.1139 40.3493 68.0579 40.5867 68.0579 40.864C68.0579 41.136 68.1139 41.3733 68.2259 41.576C68.3379 41.7787 68.4873 41.9333 68.6739 42.04C68.8659 42.1467 69.0819 42.2 69.3219 42.2ZM76.0382 43.056C75.6809 43.056 75.3369 43.0107 75.0062 42.92C74.6809 42.824 74.4222 42.7093 74.2302 42.576L74.6142 41.816C74.8062 41.9387 75.0355 42.04 75.3022 42.12C75.5689 42.2 75.8355 42.24 76.1022 42.24C76.4169 42.24 76.6435 42.1973 76.7822 42.112C76.9262 42.0267 76.9982 41.912 76.9982 41.768C76.9982 41.6507 76.9502 41.5627 76.8542 41.504C76.7582 41.44 76.6329 41.392 76.4782 41.36C76.3235 41.328 76.1502 41.2987 75.9582 41.272C75.7715 41.2453 75.5822 41.2107 75.3902 41.168C75.2035 41.12 75.0329 41.0533 74.8782 40.968C74.7235 40.8773 74.5982 40.7573 74.5022 40.608C74.4062 40.4587 74.3582 40.2613 74.3582 40.016C74.3582 39.744 74.4355 39.5093 74.5902 39.312C74.7449 39.1093 74.9609 38.9547 75.2382 38.848C75.5209 38.736 75.8542 38.68 76.2382 38.68C76.5262 38.68 76.8169 38.712 77.1102 38.776C77.4035 38.84 77.6462 38.9307 77.8382 39.048L77.4542 39.808C77.2515 39.6853 77.0462 39.6027 76.8382 39.56C76.6355 39.512 76.4329 39.488 76.2302 39.488C75.9262 39.488 75.6995 39.5333 75.5502 39.624C75.4062 39.7147 75.3342 39.8293 75.3342 39.968C75.3342 40.096 75.3822 40.192 75.4782 40.256C75.5742 40.32 75.6995 40.3707 75.8542 40.408C76.0089 40.4453 76.1795 40.4773 76.3662 40.504C76.5582 40.5253 76.7475 40.56 76.9342 40.608C77.1209 40.656 77.2915 40.7227 77.4462 40.808C77.6062 40.888 77.7342 41.0027 77.8302 41.152C77.9262 41.3013 77.9742 41.496 77.9742 41.736C77.9742 42.0027 77.8942 42.2347 77.7342 42.432C77.5795 42.6293 77.3582 42.784 77.0702 42.896C76.7822 43.0027 76.4382 43.056 76.0382 43.056ZM86.3874 38.68C86.7287 38.68 87.03 38.7467 87.2914 38.88C87.558 39.0133 87.766 39.2187 87.9154 39.496C88.0647 39.768 88.1394 40.12 88.1394 40.552V43H87.1394V40.68C87.1394 40.3013 87.0567 40.0187 86.8914 39.832C86.726 39.6453 86.4887 39.552 86.1794 39.552C85.9607 39.552 85.766 39.6 85.5954 39.696C85.43 39.792 85.2994 39.9333 85.2034 40.12C85.1127 40.3067 85.0674 40.544 85.0674 40.832V43H84.0674V40.68C84.0674 40.3013 83.9847 40.0187 83.8194 39.832C83.654 39.6453 83.4167 39.552 83.1074 39.552C82.8887 39.552 82.694 39.6 82.5234 39.696C82.358 39.792 82.2274 39.9333 82.1314 40.12C82.0407 40.3067 81.9954 40.544 81.9954 40.832V43H80.9954V38.728H81.9474V39.864L81.7794 39.528C81.9234 39.2507 82.1314 39.04 82.4034 38.896C82.6807 38.752 82.9954 38.68 83.3474 38.68C83.7474 38.68 84.094 38.7787 84.3874 38.976C84.686 39.1733 84.8834 39.472 84.9794 39.872L84.5874 39.736C84.726 39.416 84.9554 39.16 85.2754 38.968C85.5954 38.776 85.966 38.68 86.3874 38.68ZM93.5931 43.056C93.1184 43.056 92.7024 42.9627 92.3451 42.776C91.9931 42.584 91.7184 42.3227 91.5211 41.992C91.3291 41.6613 91.2331 41.2853 91.2331 40.864C91.2331 40.4373 91.3264 40.0613 91.5131 39.736C91.7051 39.4053 91.9664 39.1467 92.2971 38.96C92.6331 38.7733 93.0144 38.68 93.4411 38.68C93.8571 38.68 94.2277 38.7707 94.5531 38.952C94.8784 39.1333 95.1344 39.3893 95.3211 39.72C95.5077 40.0507 95.6011 40.44 95.6011 40.888C95.6011 40.9307 95.5984 40.9787 95.5931 41.032C95.5931 41.0853 95.5904 41.136 95.5851 41.184H92.0251V40.52H95.0571L94.6651 40.728C94.6704 40.4827 94.6197 40.2667 94.5131 40.08C94.4064 39.8933 94.2597 39.7467 94.0731 39.64C93.8917 39.5333 93.6811 39.48 93.4411 39.48C93.1957 39.48 92.9797 39.5333 92.7931 39.64C92.6117 39.7467 92.4677 39.896 92.3611 40.088C92.2597 40.2747 92.2091 40.496 92.2091 40.752V40.912C92.2091 41.168 92.2677 41.3947 92.3851 41.592C92.5024 41.7893 92.6677 41.9413 92.8811 42.048C93.0944 42.1547 93.3397 42.208 93.6171 42.208C93.8571 42.208 94.0731 42.1707 94.2651 42.096C94.4571 42.0213 94.6277 41.904 94.7771 41.744L95.3131 42.36C95.1211 42.584 94.8784 42.7573 94.5851 42.88C94.2971 42.9973 93.9664 43.056 93.5931 43.056ZM100.33 43.056C99.8603 43.056 99.4976 42.936 99.2416 42.696C98.9856 42.4507 98.8576 42.0907 98.8576 41.616V37.784H99.8576V41.592C99.8576 41.7947 99.9083 41.952 100.01 42.064C100.116 42.176 100.263 42.232 100.45 42.232C100.674 42.232 100.86 42.1733 101.01 42.056L101.29 42.768C101.172 42.864 101.028 42.936 100.858 42.984C100.687 43.032 100.511 43.056 100.33 43.056ZM98.1536 39.56V38.76H101.002V39.56H98.1536ZM104.272 43V38.728H105.272V43H104.272ZM104.776 38.024C104.59 38.024 104.435 37.9653 104.312 37.848C104.195 37.7307 104.136 37.5893 104.136 37.424C104.136 37.2533 104.195 37.112 104.312 37C104.435 36.8827 104.59 36.824 104.776 36.824C104.963 36.824 105.115 36.88 105.232 36.992C105.355 37.0987 105.416 37.2347 105.416 37.4C105.416 37.576 105.358 37.7253 105.24 37.848C105.123 37.9653 104.968 38.024 104.776 38.024ZM110.705 43.056C110.257 43.056 109.857 42.9627 109.505 42.776C109.158 42.584 108.886 42.3227 108.689 41.992C108.491 41.6613 108.393 41.2853 108.393 40.864C108.393 40.4373 108.491 40.0613 108.689 39.736C108.886 39.4053 109.158 39.1467 109.505 38.96C109.857 38.7733 110.257 38.68 110.705 38.68C111.121 38.68 111.486 38.7653 111.801 38.936C112.121 39.1013 112.363 39.3467 112.529 39.672L111.761 40.12C111.633 39.9173 111.475 39.768 111.289 39.672C111.107 39.576 110.91 39.528 110.697 39.528C110.451 39.528 110.23 39.5813 110.033 39.688C109.835 39.7947 109.681 39.9493 109.569 40.152C109.457 40.3493 109.401 40.5867 109.401 40.864C109.401 41.1413 109.457 41.3813 109.569 41.584C109.681 41.7813 109.835 41.9333 110.033 42.04C110.23 42.1467 110.451 42.2 110.697 42.2C110.91 42.2 111.107 42.152 111.289 42.056C111.475 41.96 111.633 41.8107 111.761 41.608L112.529 42.056C112.363 42.376 112.121 42.624 111.801 42.8C111.486 42.9707 111.121 43.056 110.705 43.056ZM116.873 43.056C116.516 43.056 116.172 43.0107 115.841 42.92C115.516 42.824 115.257 42.7093 115.065 42.576L115.449 41.816C115.641 41.9387 115.871 42.04 116.137 42.12C116.404 42.2 116.671 42.24 116.937 42.24C117.252 42.24 117.479 42.1973 117.617 42.112C117.761 42.0267 117.833 41.912 117.833 41.768C117.833 41.6507 117.785 41.5627 117.689 41.504C117.593 41.44 117.468 41.392 117.313 41.36C117.159 41.328 116.985 41.2987 116.793 41.272C116.607 41.2453 116.417 41.2107 116.225 41.168C116.039 41.12 115.868 41.0533 115.713 40.968C115.559 40.8773 115.433 40.7573 115.337 40.608C115.241 40.4587 115.193 40.2613 115.193 40.016C115.193 39.744 115.271 39.5093 115.425 39.312C115.58 39.1093 115.796 38.9547 116.073 38.848C116.356 38.736 116.689 38.68 117.073 38.68C117.361 38.68 117.652 38.712 117.945 38.776C118.239 38.84 118.481 38.9307 118.673 39.048L118.289 39.808C118.087 39.6853 117.881 39.6027 117.673 39.56C117.471 39.512 117.268 39.488 117.065 39.488C116.761 39.488 116.535 39.5333 116.385 39.624C116.241 39.7147 116.169 39.8293 116.169 39.968C116.169 40.096 116.217 40.192 116.313 40.256C116.409 40.32 116.535 40.3707 116.689 40.408C116.844 40.4453 117.015 40.4773 117.201 40.504C117.393 40.5253 117.583 40.56 117.769 40.608C117.956 40.656 118.127 40.7227 118.281 40.808C118.441 40.888 118.569 41.0027 118.665 41.152C118.761 41.3013 118.809 41.496 118.809 41.736C118.809 42.0027 118.729 42.2347 118.569 42.432C118.415 42.6293 118.193 42.784 117.905 42.896C117.617 43.0027 117.273 43.056 116.873 43.056Z" fill="white"/>
<path fill-rule="evenodd" clip-rule="evenodd" d="M4 1H175C176.657 1 178 2.34315 178 4V36C178 37.6569 176.657 39 175 39H134V40H175C177.209 40 179 38.2091 179 36V4C179 1.79086 177.209 0 175 0H4C1.79086 0 0 1.79086 0 4V36C0 38.2091 1.79086 40 4 40H45V39H4C2.34315 39 1 37.6569 1 36V4C1 2.34315 2.34315 1 4 1Z" fill="white"/>
</svg>
