<svg width="179" height="47" viewBox="0 0 179 47" fill="none" xmlns="http://www.w3.org/2000/svg">
<path d="M28.0371 13.5586C28.1217 13.474 28.2064 13.3438 28.291 13.168C28.3887 12.9596 28.4993 12.8555 28.623 12.8555C28.7988 12.8555 28.9062 12.9987 28.9453 13.2852L29.2871 15.9609L29.3262 16.2832C29.3262 16.459 29.2383 16.5469 29.0625 16.5469C28.9323 16.5469 28.8379 16.5176 28.7793 16.459C28.7207 16.3939 28.61 16.1921 28.4473 15.8535C28.1673 15.2741 27.7051 14.7533 27.0605 14.291C26.416 13.8288 25.7682 13.5977 25.1172 13.5977C24.4857 13.5977 23.9583 13.7799 23.5352 14.1445C23.1185 14.5026 22.9102 14.9551 22.9102 15.502C22.9102 15.9382 23.1055 16.332 23.4961 16.6836C23.8867 17.0352 24.6387 17.3672 25.752 17.6797C27.4967 18.1745 28.6784 18.7865 29.2969 19.5156C29.9089 20.2448 30.2148 21.0553 30.2148 21.9473C30.2148 22.8587 29.9902 23.6237 29.541 24.2422C29.0918 24.8607 28.5547 25.349 27.9297 25.707C27.3047 26.0586 26.5039 26.2344 25.5273 26.2344C24.974 26.2344 24.401 26.1562 23.8086 26C23.2161 25.8372 22.6042 25.5964 21.9727 25.2773C21.8424 25.4271 21.7318 25.6224 21.6406 25.8633C21.5365 26.1302 21.4062 26.2637 21.25 26.2637C21.0872 26.2637 20.9896 26.0879 20.957 25.7363L20.6738 22.1914C20.6608 22.0352 20.6543 21.9375 20.6543 21.8984C20.6543 21.7096 20.752 21.6152 20.9473 21.6152C21.0905 21.6152 21.2272 21.778 21.3574 22.1035C21.7546 23.0801 22.2949 23.8939 22.9785 24.5449C23.6556 25.196 24.4466 25.5215 25.3516 25.5215C26.1198 25.5215 26.7383 25.2936 27.207 24.8379C27.6823 24.3822 27.9199 23.8646 27.9199 23.2852C27.9199 22.7057 27.7018 22.2174 27.2656 21.8203C26.8294 21.4232 26.0449 21.0423 24.9121 20.6777C23.8118 20.3197 22.9915 19.9779 22.4512 19.6523C21.9173 19.3268 21.4876 18.8809 21.1621 18.3145C20.8431 17.7415 20.6836 17.1621 20.6836 16.5762C20.6836 15.554 21.0775 14.6849 21.8652 13.9688C22.6595 13.2526 23.737 12.8945 25.0977 12.8945C25.8333 12.8945 26.8132 13.1159 28.0371 13.5586ZM37.2852 12.7578H37.959C38.8184 14.6198 40.0326 17.5495 41.6016 21.5469C42.3242 23.3828 42.8223 24.4961 43.0957 24.8867C43.3691 25.2708 43.8021 25.5052 44.3945 25.5898C44.5898 25.6159 44.6875 25.7005 44.6875 25.8438C44.6875 26.0456 44.5605 26.1465 44.3066 26.1465C44.1699 26.1465 43.8151 26.1237 43.2422 26.0781C42.5651 26.0195 41.9954 25.9902 41.5332 25.9902C41.084 25.9902 40.498 26.0163 39.7754 26.0684C39.235 26.1074 38.8802 26.127 38.7109 26.127C38.4115 26.127 38.2617 26.0326 38.2617 25.8438C38.2617 25.7005 38.3659 25.6191 38.5742 25.5996C39.375 25.528 39.7754 25.2155 39.7754 24.6621C39.7754 24.4017 39.6582 23.9232 39.4238 23.2266C39.1895 22.5234 38.9388 21.8854 38.6719 21.3125C38.2487 21.306 37.9199 21.3027 37.6855 21.3027C36.377 21.3027 35.3581 21.306 34.6289 21.3125C34.0625 22.8555 33.7793 23.8776 33.7793 24.3789C33.7793 24.737 33.9193 25.0169 34.1992 25.2188C34.4792 25.4141 34.7819 25.528 35.1074 25.5605C35.3548 25.5866 35.4785 25.6875 35.4785 25.8633C35.4785 26.0391 35.3451 26.127 35.0781 26.127C34.974 26.127 34.7005 26.1107 34.2578 26.0781C33.6849 26.0326 33.2682 26.0098 33.0078 26.0098C32.4935 26.0098 32.0052 26.0423 31.543 26.1074C31.4258 26.127 31.3281 26.1367 31.25 26.1367C31.0091 26.1367 30.8887 26.0391 30.8887 25.8438C30.8887 25.7005 30.9668 25.6061 31.123 25.5605C31.5137 25.4499 31.8197 25.3132 32.041 25.1504C32.2624 24.9876 32.5 24.6751 32.7539 24.2129C33.0143 23.7507 33.3236 23.0117 33.6816 21.9961C34.4889 19.7174 35.6901 16.638 37.2852 12.7578ZM36.6016 16.166L34.9219 20.5215L38.3594 20.4727C38.1771 19.9648 37.8971 19.2682 37.5195 18.3828C37.1094 17.4193 36.8034 16.6803 36.6016 16.166ZM52.8418 13.5586C52.9264 13.474 53.0111 13.3438 53.0957 13.168C53.1934 12.9596 53.304 12.8555 53.4277 12.8555C53.6035 12.8555 53.7109 12.9987 53.75 13.2852L54.0918 15.9609L54.1309 16.2832C54.1309 16.459 54.043 16.5469 53.8672 16.5469C53.737 16.5469 53.6426 16.5176 53.584 16.459C53.5254 16.3939 53.4147 16.1921 53.252 15.8535C52.972 15.2741 52.5098 14.7533 51.8652 14.291C51.2207 13.8288 50.5729 13.5977 49.9219 13.5977C49.2904 13.5977 48.763 13.7799 48.3398 14.1445C47.9232 14.5026 47.7148 14.9551 47.7148 15.502C47.7148 15.9382 47.9102 16.332 48.3008 16.6836C48.6914 17.0352 49.4434 17.3672 50.5566 17.6797C52.3014 18.1745 53.4831 18.7865 54.1016 19.5156C54.7135 20.2448 55.0195 21.0553 55.0195 21.9473C55.0195 22.8587 54.7949 23.6237 54.3457 24.2422C53.8965 24.8607 53.3594 25.349 52.7344 25.707C52.1094 26.0586 51.3086 26.2344 50.332 26.2344C49.7786 26.2344 49.2057 26.1562 48.6133 26C48.0208 25.8372 47.4089 25.5964 46.7773 25.2773C46.6471 25.4271 46.5365 25.6224 46.4453 25.8633C46.3411 26.1302 46.2109 26.2637 46.0547 26.2637C45.8919 26.2637 45.7943 26.0879 45.7617 25.7363L45.4785 22.1914C45.4655 22.0352 45.459 21.9375 45.459 21.8984C45.459 21.7096 45.5566 21.6152 45.752 21.6152C45.8952 21.6152 46.0319 21.778 46.1621 22.1035C46.5592 23.0801 47.0996 23.8939 47.7832 24.5449C48.4603 25.196 49.2513 25.5215 50.1562 25.5215C50.9245 25.5215 51.543 25.2936 52.0117 24.8379C52.487 24.3822 52.7246 23.8646 52.7246 23.2852C52.7246 22.7057 52.5065 22.2174 52.0703 21.8203C51.6341 21.4232 50.8496 21.0423 49.7168 20.6777C48.6165 20.3197 47.7962 19.9779 47.2559 19.6523C46.722 19.3268 46.2923 18.8809 45.9668 18.3145C45.6478 17.7415 45.4883 17.1621 45.4883 16.5762C45.4883 15.554 45.8822 14.6849 46.6699 13.9688C47.4642 13.2526 48.5417 12.8945 49.9023 12.8945C50.638 12.8945 51.6178 13.1159 52.8418 13.5586ZM63.6816 13.5586C63.7663 13.474 63.8509 13.3438 63.9355 13.168C64.0332 12.9596 64.1439 12.8555 64.2676 12.8555C64.4434 12.8555 64.5508 12.9987 64.5898 13.2852L64.9316 15.9609L64.9707 16.2832C64.9707 16.459 64.8828 16.5469 64.707 16.5469C64.5768 16.5469 64.4824 16.5176 64.4238 16.459C64.3652 16.3939 64.2546 16.1921 64.0918 15.8535C63.8118 15.2741 63.3496 14.7533 62.7051 14.291C62.0605 13.8288 61.4128 13.5977 60.7617 13.5977C60.1302 13.5977 59.6029 13.7799 59.1797 14.1445C58.763 14.5026 58.5547 14.9551 58.5547 15.502C58.5547 15.9382 58.75 16.332 59.1406 16.6836C59.5312 17.0352 60.2832 17.3672 61.3965 17.6797C63.1413 18.1745 64.3229 18.7865 64.9414 19.5156C65.5534 20.2448 65.8594 21.0553 65.8594 21.9473C65.8594 22.8587 65.6348 23.6237 65.1855 24.2422C64.7363 24.8607 64.1992 25.349 63.5742 25.707C62.9492 26.0586 62.1484 26.2344 61.1719 26.2344C60.6185 26.2344 60.0456 26.1562 59.4531 26C58.8607 25.8372 58.2487 25.5964 57.6172 25.2773C57.487 25.4271 57.3763 25.6224 57.2852 25.8633C57.181 26.1302 57.0508 26.2637 56.8945 26.2637C56.7318 26.2637 56.6341 26.0879 56.6016 25.7363L56.3184 22.1914C56.3053 22.0352 56.2988 21.9375 56.2988 21.8984C56.2988 21.7096 56.3965 21.6152 56.5918 21.6152C56.735 21.6152 56.8717 21.778 57.002 22.1035C57.3991 23.0801 57.9395 23.8939 58.623 24.5449C59.3001 25.196 60.0911 25.5215 60.9961 25.5215C61.7643 25.5215 62.3828 25.2936 62.8516 24.8379C63.3268 24.3822 63.5645 23.8646 63.5645 23.2852C63.5645 22.7057 63.3464 22.2174 62.9102 21.8203C62.474 21.4232 61.6895 21.0423 60.5566 20.6777C59.4564 20.3197 58.6361 19.9779 58.0957 19.6523C57.5618 19.3268 57.1322 18.8809 56.8066 18.3145C56.4876 17.7415 56.3281 17.1621 56.3281 16.5762C56.3281 15.554 56.722 14.6849 57.5098 13.9688C58.304 13.2526 59.3815 12.8945 60.7422 12.8945C61.4779 12.8945 62.4577 13.1159 63.6816 13.5586ZM74.3457 12.9336C75.6608 12.9336 76.8099 13.1973 77.793 13.7246C78.7826 14.252 79.5736 15.0169 80.166 16.0195C80.765 17.0156 81.0645 18.1029 81.0645 19.2812C81.0645 21.1042 80.3841 22.722 79.0234 24.1348C77.6628 25.541 75.9766 26.2441 73.9648 26.2441C72.1354 26.2441 70.5697 25.6615 69.2676 24.4961C67.972 23.3307 67.3242 21.7552 67.3242 19.7695C67.3242 17.8945 67.9948 16.2865 69.3359 14.9453C70.6836 13.6042 72.3535 12.9336 74.3457 12.9336ZM77.7539 19.5742C77.7539 17.6016 77.4186 16.1172 76.748 15.1211C76.0775 14.125 75.2279 13.627 74.1992 13.627C73.1771 13.627 72.3307 14.1283 71.6602 15.1309C70.9896 16.127 70.6543 17.6081 70.6543 19.5742C70.6543 21.4622 70.9733 22.9271 71.6113 23.9688C72.2559 25.0104 73.1185 25.5312 74.1992 25.5312C75.1562 25.5312 75.9863 25.0625 76.6895 24.125C77.3991 23.181 77.7539 21.6641 77.7539 19.5742ZM82.7246 13.002L85.8691 13.1094C86.1686 13.1094 86.5104 13.0931 86.8945 13.0605C87.5065 13.015 87.9883 12.9922 88.3398 12.9922C88.6719 12.9922 88.8379 13.0833 88.8379 13.2656C88.8379 13.4414 88.7077 13.5358 88.4473 13.5488C87.9785 13.5749 87.627 13.7441 87.3926 14.0566C87.1647 14.3626 87.0182 14.9974 86.9531 15.9609C86.888 16.918 86.8555 17.9727 86.8555 19.125C86.8555 20.974 86.9434 22.2174 87.1191 22.8555C87.2949 23.487 87.6725 23.9915 88.252 24.3691C88.8314 24.7467 89.5996 24.9355 90.5566 24.9355C91.5267 24.9355 92.2591 24.7305 92.7539 24.3203C93.2487 23.9036 93.5872 23.2526 93.7695 22.3672C93.9583 21.4818 94.0527 19.8379 94.0527 17.4355C94.0527 16.0163 93.9421 15.0365 93.7207 14.4961C93.4993 13.9557 93.1217 13.6595 92.5879 13.6074C92.2038 13.5684 92.0117 13.4544 92.0117 13.2656C92.0117 13.0768 92.168 12.9824 92.4805 12.9824C92.6302 12.9824 92.8809 13.002 93.2324 13.041C93.597 13.0736 93.9779 13.0898 94.375 13.0898C94.7396 13.0898 95.1465 13.0703 95.5957 13.0312C95.9342 13.0052 96.1686 12.9922 96.2988 12.9922C96.6243 12.9922 96.7871 13.0866 96.7871 13.2754C96.7871 13.4251 96.6699 13.513 96.4355 13.5391C96.11 13.5716 95.8138 13.7246 95.5469 13.998C95.2865 14.265 95.1172 14.7109 95.0391 15.3359C94.9674 15.9544 94.9316 17.5495 94.9316 20.1211C94.9316 21.8138 94.7624 23.041 94.4238 23.8027C94.0853 24.5579 93.4928 25.1471 92.6465 25.5703C91.8066 25.987 90.7585 26.1953 89.502 26.1953C88.5319 26.1953 87.6888 26.1107 86.9727 25.9414C86.2565 25.7656 85.6868 25.4987 85.2637 25.1406C84.847 24.7826 84.5443 24.3691 84.3555 23.9004C84.1732 23.4316 84.082 22.7415 84.082 21.8301L84.1211 16.625C84.1211 15.8958 84.0788 15.2969 83.9941 14.8281C83.916 14.3594 83.7891 14.0501 83.6133 13.9004C83.4375 13.7441 83.1706 13.6465 82.8125 13.6074C82.5846 13.5814 82.4414 13.5488 82.3828 13.5098C82.3307 13.4642 82.3047 13.3926 82.3047 13.2949C82.3047 13.0996 82.4447 13.002 82.7246 13.002ZM102.217 13.1582C102.386 13.5618 102.699 14.2031 103.154 15.082C103.61 15.9544 104.059 16.8431 104.502 17.748C104.951 18.6465 105.456 19.5938 106.016 20.5898C106.465 21.3776 106.719 21.8398 106.777 21.9766C108.411 18.3242 109.648 15.3848 110.488 13.1582C112.051 13.1582 113.493 13.1191 114.814 13.041C114.938 13.0345 115.029 13.0312 115.088 13.0312C115.355 13.0312 115.488 13.1354 115.488 13.3438C115.488 13.526 115.384 13.6172 115.176 13.6172C114.434 13.6172 113.945 13.8711 113.711 14.3789C113.483 14.8802 113.369 16.1074 113.369 18.0605L113.359 22.8457C113.359 23.8223 113.486 24.5059 113.74 24.8965C114.001 25.2871 114.421 25.4922 115 25.5117C115.28 25.5182 115.42 25.6126 115.42 25.7949C115.42 25.8926 115.361 25.974 115.244 26.0391L112.5 26.0195C111.66 26.0195 110.511 26.0488 109.053 26.1074C108.929 26.0228 108.867 25.9316 108.867 25.834C108.867 25.6842 109.036 25.5833 109.375 25.5312C109.72 25.4727 109.967 25.388 110.117 25.2773C110.273 25.1667 110.391 24.9616 110.469 24.6621C110.547 24.3626 110.586 23.9232 110.586 23.3438L110.625 18.9785C110.625 16.7454 110.628 15.4596 110.635 15.1211C108.864 19.2357 107.767 21.8626 107.344 23.002L106.357 25.6484C106.247 25.9284 106.136 26.0684 106.025 26.0684C105.908 26.0684 105.768 25.8958 105.605 25.5508C105.13 24.5482 103.434 21.2376 100.518 15.6191C100.485 17.2337 100.469 19.4115 100.469 22.1523C100.469 23.5977 100.55 24.5124 100.713 24.8965C100.876 25.2741 101.331 25.4954 102.08 25.5605C102.327 25.5866 102.451 25.6777 102.451 25.834C102.451 26.0033 102.35 26.0879 102.148 26.0879C102.077 26.0879 101.999 26.0846 101.914 26.0781C101.133 26.026 100.573 26 100.234 26C99.3099 26 98.61 26.0326 98.1348 26.0977C98.0436 26.1107 97.9753 26.1172 97.9297 26.1172C97.7018 26.1172 97.5879 26.0228 97.5879 25.834C97.5879 25.7428 97.6139 25.681 97.666 25.6484C97.7246 25.6094 97.8743 25.5638 98.1152 25.5117C98.7402 25.3945 99.1471 25.1699 99.3359 24.8379C99.5312 24.5059 99.6289 23.9622 99.6289 23.207L99.6777 17.6309C99.6777 16.3613 99.6452 15.5215 99.5801 15.1113C99.515 14.7012 99.3555 14.3854 99.1016 14.1641C98.8477 13.9427 98.4342 13.7767 97.8613 13.666C97.6465 13.6204 97.5391 13.513 97.5391 13.3438C97.5391 13.1615 97.6562 13.0703 97.8906 13.0703C97.9427 13.0703 98.0143 13.0736 98.1055 13.0801C98.7695 13.1322 100.14 13.1582 102.217 13.1582ZM122.324 12.7578H122.998C123.857 14.6198 125.072 17.5495 126.641 21.5469C127.363 23.3828 127.861 24.4961 128.135 24.8867C128.408 25.2708 128.841 25.5052 129.434 25.5898C129.629 25.6159 129.727 25.7005 129.727 25.8438C129.727 26.0456 129.6 26.1465 129.346 26.1465C129.209 26.1465 128.854 26.1237 128.281 26.0781C127.604 26.0195 127.035 25.9902 126.572 25.9902C126.123 25.9902 125.537 26.0163 124.814 26.0684C124.274 26.1074 123.919 26.127 123.75 26.127C123.451 26.127 123.301 26.0326 123.301 25.8438C123.301 25.7005 123.405 25.6191 123.613 25.5996C124.414 25.528 124.814 25.2155 124.814 24.6621C124.814 24.4017 124.697 23.9232 124.463 23.2266C124.229 22.5234 123.978 21.8854 123.711 21.3125C123.288 21.306 122.959 21.3027 122.725 21.3027C121.416 21.3027 120.397 21.306 119.668 21.3125C119.102 22.8555 118.818 23.8776 118.818 24.3789C118.818 24.737 118.958 25.0169 119.238 25.2188C119.518 25.4141 119.821 25.528 120.146 25.5605C120.394 25.5866 120.518 25.6875 120.518 25.8633C120.518 26.0391 120.384 26.127 120.117 26.127C120.013 26.127 119.74 26.1107 119.297 26.0781C118.724 26.0326 118.307 26.0098 118.047 26.0098C117.533 26.0098 117.044 26.0423 116.582 26.1074C116.465 26.127 116.367 26.1367 116.289 26.1367C116.048 26.1367 115.928 26.0391 115.928 25.8438C115.928 25.7005 116.006 25.6061 116.162 25.5605C116.553 25.4499 116.859 25.3132 117.08 25.1504C117.301 24.9876 117.539 24.6751 117.793 24.2129C118.053 23.7507 118.363 23.0117 118.721 21.9961C119.528 19.7174 120.729 16.638 122.324 12.7578ZM121.641 16.166L119.961 20.5215L123.398 20.4727C123.216 19.9648 122.936 19.2682 122.559 18.3828C122.148 17.4193 121.842 16.6803 121.641 16.166ZM133.906 13.0996C137.025 16.6478 139.626 19.4928 141.709 21.6348C141.715 21.1921 141.719 20.9056 141.719 20.7754L141.729 16.9082C141.729 15.9967 141.676 15.3457 141.572 14.9551C141.468 14.5579 141.247 14.2454 140.908 14.0176C140.57 13.7897 140.176 13.6562 139.727 13.6172C139.486 13.5911 139.365 13.4902 139.365 13.3145C139.365 13.1257 139.476 13.0312 139.697 13.0312C139.821 13.0312 139.98 13.0443 140.176 13.0703C140.547 13.1159 141.09 13.1387 141.807 13.1387C142.705 13.1387 143.389 13.1126 143.857 13.0605C144.053 13.041 144.219 13.0312 144.355 13.0312C144.603 13.0312 144.727 13.1257 144.727 13.3145C144.727 13.4967 144.561 13.6042 144.229 13.6367C143.818 13.6758 143.434 13.8483 143.076 14.1543C142.725 14.4603 142.549 15.0625 142.549 15.9609L142.598 21.4883L142.529 25.6484C142.529 26.0065 142.419 26.1855 142.197 26.1855C142.139 26.1855 142.07 26.166 141.992 26.127C141.914 26.0879 141.465 25.6387 140.645 24.7793C139.831 23.9134 138.617 22.5755 137.002 20.7656C135.394 18.9492 134.264 17.6471 133.613 16.8594C133.6 17.0352 133.594 18.6725 133.594 21.7715C133.594 22.7285 133.633 23.4805 133.711 24.0273C133.796 24.5677 134.049 24.9616 134.473 25.209C134.902 25.4499 135.29 25.5703 135.635 25.5703C135.856 25.5703 135.967 25.6549 135.967 25.8242C135.967 26.0195 135.85 26.1172 135.615 26.1172C135.465 26.1172 135.277 26.1042 135.049 26.0781C134.658 26.026 134.16 26 133.555 26C132.585 26 131.882 26.0293 131.445 26.0879C131.172 26.1204 130.977 26.1367 130.859 26.1367C130.605 26.1367 130.479 26.0293 130.479 25.8145C130.479 25.6582 130.684 25.5638 131.094 25.5312C131.829 25.4727 132.288 25.2188 132.471 24.7695C132.66 24.3203 132.754 23.7083 132.754 22.9336C132.754 19.5742 132.734 17.5202 132.695 16.7715C132.663 16.0228 132.428 15.3457 131.992 14.7402C131.562 14.1348 131.042 13.7734 130.43 13.6562C130.176 13.6107 130.049 13.5098 130.049 13.3535C130.049 13.1387 130.182 13.0312 130.449 13.0312C130.514 13.0312 130.609 13.0378 130.732 13.0508C130.882 13.0638 131.152 13.0703 131.543 13.0703C132.389 13.0703 133.177 13.0801 133.906 13.0996ZM156.309 13.207C156.517 14.2227 156.722 15.2383 156.924 16.2539C156.924 16.4427 156.829 16.5371 156.641 16.5371C156.536 16.5371 156.419 16.446 156.289 16.2637C155.618 15.2871 155.003 14.6426 154.443 14.3301C153.89 14.0176 153.089 13.8613 152.041 13.8613C151.455 13.8613 150.889 13.9102 150.342 14.0078C150.225 15.1602 150.166 16.4232 150.166 17.7969C150.166 18.0312 150.173 18.4251 150.186 18.9785L150.928 18.9883C151.39 18.9883 151.787 18.9264 152.119 18.8027C152.458 18.6725 152.744 18.4023 152.979 17.9922C153.213 17.5755 153.346 17.3086 153.379 17.1914C153.438 16.9831 153.538 16.8789 153.682 16.8789C153.864 16.8789 153.955 16.957 153.955 17.1133C153.955 17.1589 153.949 17.2109 153.936 17.2695C153.857 17.6732 153.818 18.8809 153.818 20.8926C153.818 21.1725 153.841 21.4264 153.887 21.6543C153.9 21.7194 153.906 21.7747 153.906 21.8203C153.906 22.0026 153.802 22.0938 153.594 22.0938C153.451 22.0938 153.34 21.9212 153.262 21.5762C153.132 20.9707 152.835 20.5117 152.373 20.1992C151.911 19.8802 151.182 19.7142 150.186 19.7012C150.153 20.7949 150.137 21.5143 150.137 21.8594C150.137 23.3438 150.16 24.2259 150.205 24.5059C150.251 24.7858 150.417 25.0137 150.703 25.1895C150.99 25.3587 151.475 25.4434 152.158 25.4434C154.639 25.4434 156.27 24.6556 157.051 23.0801C157.161 22.8587 157.282 22.748 157.412 22.748C157.601 22.748 157.695 22.8262 157.695 22.9824C157.695 23.0866 157.676 23.2201 157.637 23.3828L157.002 26.1855L153.467 26.1758C152.471 26.1693 151.54 26.1465 150.674 26.1074C149.814 26.0684 149.141 26.0488 148.652 26.0488C148.105 26.0488 147.282 26.0814 146.182 26.1465C146.045 26.1595 145.944 26.166 145.879 26.166C145.573 26.166 145.42 26.0651 145.42 25.8633C145.42 25.681 145.544 25.5898 145.791 25.5898C146.423 25.5898 146.846 25.4206 147.061 25.082C147.282 24.737 147.393 24.0371 147.393 22.9824L147.451 17.9531C147.451 16.2344 147.428 15.1797 147.383 14.7891C147.344 14.3919 147.233 14.125 147.051 13.9883C146.868 13.8451 146.527 13.7376 146.025 13.666C145.817 13.64 145.713 13.5488 145.713 13.3926C145.713 13.1973 145.833 13.0996 146.074 13.0996L148.428 13.1777L156.309 13.207Z" fill="white"/>
<path d="M60.344 43.08C59.9173 43.08 59.52 43.0107 59.152 42.872C58.7893 42.728 58.472 42.528 58.2 42.272C57.9333 42.0107 57.7253 41.704 57.576 41.352C57.4267 41 57.352 40.616 57.352 40.2C57.352 39.784 57.4267 39.4 57.576 39.048C57.7253 38.696 57.936 38.392 58.208 38.136C58.48 37.8747 58.7973 37.6747 59.16 37.536C59.5227 37.392 59.92 37.32 60.352 37.32C60.8107 37.32 61.2293 37.4 61.608 37.56C61.9867 37.7147 62.3067 37.9467 62.568 38.256L61.896 38.888C61.6933 38.6693 61.4667 38.5067 61.216 38.4C60.9653 38.288 60.6933 38.232 60.4 38.232C60.1067 38.232 59.8373 38.28 59.592 38.376C59.352 38.472 59.1413 38.608 58.96 38.784C58.784 38.96 58.6453 39.168 58.544 39.408C58.448 39.648 58.4 39.912 58.4 40.2C58.4 40.488 58.448 40.752 58.544 40.992C58.6453 41.232 58.784 41.44 58.96 41.616C59.1413 41.792 59.352 41.928 59.592 42.024C59.8373 42.12 60.1067 42.168 60.4 42.168C60.6933 42.168 60.9653 42.1147 61.216 42.008C61.4667 41.896 61.6933 41.728 61.896 41.504L62.568 42.144C62.3067 42.448 61.9867 42.68 61.608 42.84C61.2293 43 60.808 43.08 60.344 43.08ZM68.2313 43.08C67.794 43.08 67.3913 43.008 67.0233 42.864C66.6553 42.72 66.3353 42.52 66.0633 42.264C65.7913 42.0027 65.5806 41.6987 65.4313 41.352C65.282 41 65.2073 40.616 65.2073 40.2C65.2073 39.784 65.282 39.4027 65.4313 39.056C65.5806 38.704 65.7913 38.4 66.0633 38.144C66.3353 37.8827 66.6553 37.68 67.0233 37.536C67.3913 37.392 67.7913 37.32 68.2233 37.32C68.6606 37.32 69.0606 37.392 69.4233 37.536C69.7913 37.68 70.1113 37.8827 70.3833 38.144C70.6553 38.4 70.866 38.704 71.0153 39.056C71.1646 39.4027 71.2393 39.784 71.2393 40.2C71.2393 40.616 71.1646 41 71.0153 41.352C70.866 41.704 70.6553 42.008 70.3833 42.264C70.1113 42.52 69.7913 42.72 69.4233 42.864C69.0606 43.008 68.6633 43.08 68.2313 43.08ZM68.2233 42.168C68.506 42.168 68.7673 42.12 69.0073 42.024C69.2473 41.928 69.4553 41.792 69.6313 41.616C69.8073 41.4347 69.9433 41.2267 70.0393 40.992C70.1406 40.752 70.1913 40.488 70.1913 40.2C70.1913 39.912 70.1406 39.6507 70.0393 39.416C69.9433 39.176 69.8073 38.968 69.6313 38.792C69.4553 38.6107 69.2473 38.472 69.0073 38.376C68.7673 38.28 68.506 38.232 68.2233 38.232C67.9406 38.232 67.6793 38.28 67.4393 38.376C67.2046 38.472 66.9966 38.6107 66.8153 38.792C66.6393 38.968 66.5006 39.176 66.3993 39.416C66.3033 39.6507 66.2553 39.912 66.2553 40.2C66.2553 40.4827 66.3033 40.744 66.3993 40.984C66.5006 41.224 66.6393 41.4347 66.8153 41.616C66.9913 41.792 67.1993 41.928 67.4393 42.024C67.6793 42.12 67.9406 42.168 68.2233 42.168ZM76.2377 43.08C75.8004 43.08 75.3817 43.0187 74.9817 42.896C74.5817 42.768 74.2644 42.6053 74.0297 42.408L74.3897 41.6C74.6137 41.776 74.891 41.9227 75.2217 42.04C75.5524 42.1573 75.891 42.216 76.2377 42.216C76.531 42.216 76.7684 42.184 76.9497 42.12C77.131 42.056 77.2644 41.9707 77.3497 41.864C77.435 41.752 77.4777 41.6267 77.4777 41.488C77.4777 41.3173 77.4164 41.1813 77.2937 41.08C77.171 40.9733 77.011 40.8907 76.8137 40.832C76.6217 40.768 76.4057 40.7093 76.1657 40.656C75.931 40.6027 75.6937 40.5413 75.4537 40.472C75.219 40.3973 75.003 40.304 74.8057 40.192C74.6137 40.0747 74.4564 39.92 74.3337 39.728C74.211 39.536 74.1497 39.2907 74.1497 38.992C74.1497 38.688 74.2297 38.4107 74.3897 38.16C74.555 37.904 74.803 37.7013 75.1337 37.552C75.4697 37.3973 75.8937 37.32 76.4057 37.32C76.7417 37.32 77.075 37.3627 77.4057 37.448C77.7364 37.5333 78.0244 37.656 78.2697 37.816L77.9417 38.624C77.691 38.4747 77.4324 38.3653 77.1657 38.296C76.899 38.2213 76.643 38.184 76.3977 38.184C76.1097 38.184 75.875 38.2187 75.6937 38.288C75.5177 38.3573 75.387 38.448 75.3017 38.56C75.2217 38.672 75.1817 38.8 75.1817 38.944C75.1817 39.1147 75.2404 39.2533 75.3577 39.36C75.4804 39.4613 75.6377 39.5413 75.8297 39.6C76.027 39.6587 76.2457 39.7173 76.4857 39.776C76.7257 39.8293 76.963 39.8907 77.1977 39.96C77.4377 40.0293 77.6537 40.12 77.8457 40.232C78.043 40.344 78.2004 40.496 78.3177 40.688C78.4404 40.88 78.5017 41.1227 78.5017 41.416C78.5017 41.7147 78.419 41.992 78.2537 42.248C78.0937 42.4987 77.8457 42.7013 77.5097 42.856C77.1737 43.0053 76.7497 43.08 76.2377 43.08ZM81.6929 43V37.4H82.5489L84.9969 41.488H84.5489L86.9569 37.4H87.8129L87.8209 43H86.8369L86.8289 38.944H87.0369L84.9889 42.36H84.5249L82.4449 38.944H82.6849V43H81.6929ZM92.4536 39.728H95.2376V40.584H92.4536V39.728ZM92.5336 42.128H95.6936V43H91.4936V37.4H95.5816V38.272H92.5336V42.128ZM100.149 43V38.28H98.2929V37.4H103.045V38.28H101.189V43H100.149ZM105.985 43V37.4H107.025V43H105.985ZM113.292 43.08C112.865 43.08 112.468 43.0107 112.1 42.872C111.737 42.728 111.42 42.528 111.148 42.272C110.881 42.0107 110.673 41.704 110.524 41.352C110.375 41 110.3 40.616 110.3 40.2C110.3 39.784 110.375 39.4 110.524 39.048C110.673 38.696 110.884 38.392 111.156 38.136C111.428 37.8747 111.745 37.6747 112.108 37.536C112.471 37.392 112.868 37.32 113.3 37.32C113.759 37.32 114.177 37.4 114.556 37.56C114.935 37.7147 115.255 37.9467 115.516 38.256L114.844 38.888C114.641 38.6693 114.415 38.5067 114.164 38.4C113.913 38.288 113.641 38.232 113.348 38.232C113.055 38.232 112.785 38.28 112.54 38.376C112.3 38.472 112.089 38.608 111.908 38.784C111.732 38.96 111.593 39.168 111.492 39.408C111.396 39.648 111.348 39.912 111.348 40.2C111.348 40.488 111.396 40.752 111.492 40.992C111.593 41.232 111.732 41.44 111.908 41.616C112.089 41.792 112.3 41.928 112.54 42.024C112.785 42.12 113.055 42.168 113.348 42.168C113.641 42.168 113.913 42.1147 114.164 42.008C114.415 41.896 114.641 41.728 114.844 41.504L115.516 42.144C115.255 42.448 114.935 42.68 114.556 42.84C114.177 43 113.756 43.08 113.292 43.08ZM120.401 43.08C119.963 43.08 119.545 43.0187 119.145 42.896C118.745 42.768 118.427 42.6053 118.193 42.408L118.553 41.6C118.777 41.776 119.054 41.9227 119.385 42.04C119.715 42.1573 120.054 42.216 120.401 42.216C120.694 42.216 120.931 42.184 121.113 42.12C121.294 42.056 121.427 41.9707 121.513 41.864C121.598 41.752 121.641 41.6267 121.641 41.488C121.641 41.3173 121.579 41.1813 121.457 41.08C121.334 40.9733 121.174 40.8907 120.977 40.832C120.785 40.768 120.569 40.7093 120.329 40.656C120.094 40.6027 119.857 40.5413 119.617 40.472C119.382 40.3973 119.166 40.304 118.969 40.192C118.777 40.0747 118.619 39.92 118.497 39.728C118.374 39.536 118.313 39.2907 118.313 38.992C118.313 38.688 118.393 38.4107 118.553 38.16C118.718 37.904 118.966 37.7013 119.297 37.552C119.633 37.3973 120.057 37.32 120.569 37.32C120.905 37.32 121.238 37.3627 121.569 37.448C121.899 37.5333 122.187 37.656 122.433 37.816L122.105 38.624C121.854 38.4747 121.595 38.3653 121.329 38.296C121.062 38.2213 120.806 38.184 120.561 38.184C120.273 38.184 120.038 38.2187 119.857 38.288C119.681 38.3573 119.55 38.448 119.465 38.56C119.385 38.672 119.345 38.8 119.345 38.944C119.345 39.1147 119.403 39.2533 119.521 39.36C119.643 39.4613 119.801 39.5413 119.993 39.6C120.19 39.6587 120.409 39.7173 120.649 39.776C120.889 39.8293 121.126 39.8907 121.361 39.96C121.601 40.0293 121.817 40.12 122.009 40.232C122.206 40.344 122.363 40.496 122.481 40.688C122.603 40.88 122.665 41.1227 122.665 41.416C122.665 41.7147 122.582 41.992 122.417 42.248C122.257 42.4987 122.009 42.7013 121.673 42.856C121.337 43.0053 120.913 43.08 120.401 43.08Z" fill="white"/>
<path fill-rule="evenodd" clip-rule="evenodd" d="M4 1H175C176.657 1 178 2.34315 178 4V36C178 37.6569 176.657 39 175 39H134V40H175C177.209 40 179 38.2091 179 36V4C179 1.79086 177.209 0 175 0H4C1.79086 0 0 1.79086 0 4V36C0 38.2091 1.79086 40 4 40H45V39H4C2.34315 39 1 37.6569 1 36V4C1 2.34315 2.34315 1 4 1Z" fill="white"/>
</svg>
